HIERARCHY
ROOT mixamorig1:Hips
{
	OFFSET -0.000023 99.754364 3.007850
	CHANNELS 6 Xposition Yposition Zposition Xrotation Yrotation Zrotation
	JOINT mixamorig1:Spine
	{
		OFFSET 0.000000 9.717224 -1.180211
		CHANNELS 3 Xrotation Yrotation Zrotation
		JOINT mixamorig1:Spine1
		{
			OFFSET 0.000000 11.336823 -1.376936
			CHANNELS 3 Xrotation Yrotation Zrotation
			JOINT mixamorig1:Spine2
			{
				OFFSET 0.000000 12.956345 -1.573657
				CHANNELS 3 Xrotation Yrotation Zrotation
				JOINT mixamorig1:Neck
				{
					OFFSET 0.000000 14.575974 -1.770441
					CHANNELS 3 Xrotation Yrotation Zrotation
					JOINT mixamorig1:Head
					{
						OFFSET 0.000000 6.720200 1.972157
						CHANNELS 3 Xrotation Yrotation Zrotation
						JOINT mixamorig1:HeadTop_End
						{
							OFFSET 0.000000 20.999847 6.162758
							CHANNELS 3 Xrotation Yrotation Zrotation
							End Site
							{
								OFFSET 0.000000 21.885452 -0.000004
							}
						}
					}
				}
				JOINT mixamorig1:LeftShoulder
				{
					OFFSET 6.140116 12.877853 -1.799548
					CHANNELS 3 Xrotation Yrotation Zrotation
					JOINT mixamorig1:LeftArm
					{
						OFFSET 12.545031 -3.431427 -0.058010
						CHANNELS 3 Xrotation Yrotation Zrotation
						JOINT mixamorig1:LeftForeArm
						{
							OFFSET 25.447281 -1.876373 -1.505625
							CHANNELS 3 Xrotation Yrotation Zrotation
							JOINT mixamorig1:LeftHand
							{
								OFFSET 23.367504 0.877640 0.971305
								CHANNELS 3 Xrotation Yrotation Zrotation
								JOINT mixamorig1:LeftHandThumb1
								{
									OFFSET 3.575478 -1.761887 3.039434
									CHANNELS 3 Xrotation Yrotation Zrotation
									JOINT mixamorig1:LeftHandThumb2
									{
										OFFSET 2.860405 -1.409454 2.431552
										CHANNELS 3 Xrotation Yrotation Zrotation
										JOINT mixamorig1:LeftHandThumb3
										{
											OFFSET 2.578941 -1.801514 1.750709
											CHANNELS 3 Xrotation Yrotation Zrotation
											JOINT mixamorig1:LeftHandThumb4
											{
												OFFSET 2.408989 -1.461151 1.064221
												CHANNELS 3 Xrotation Yrotation Zrotation
												End Site
												{
													OFFSET 2.176476 -1.503357 1.440013
												}
											}
										}
									}
								}
								JOINT mixamorig1:LeftHandIndex1
								{
									OFFSET 11.357018 -1.306473 4.439679
									CHANNELS 3 Xrotation Yrotation Zrotation
									JOINT mixamorig1:LeftHandIndex2
									{
										OFFSET 3.215240 -0.390930 0.624045
										CHANNELS 3 Xrotation Yrotation Zrotation
										JOINT mixamorig1:LeftHandIndex3
										{
											OFFSET 2.938980 -0.735489 0.560646
											CHANNELS 3 Xrotation Yrotation Zrotation
											JOINT mixamorig1:LeftHandIndex4
											{
												OFFSET 2.552437 -0.779205 0.483288
												CHANNELS 3 Xrotation Yrotation Zrotation
												End Site
												{
													OFFSET 2.555870 -0.777603 0.467434
												}
											}
										}
									}
								}
								JOINT mixamorig1:LeftHandMiddle1
								{
									OFFSET 12.195602 -0.657242 2.108765
									CHANNELS 3 Xrotation Yrotation Zrotation
									JOINT mixamorig1:LeftHandMiddle2
									{
										OFFSET 3.379944 -0.547394 0.236206
										CHANNELS 3 Xrotation Yrotation Zrotation
										JOINT mixamorig1:LeftHandMiddle3
										{
											OFFSET 3.043900 -0.829651 0.195068
											CHANNELS 3 Xrotation Yrotation Zrotation
											JOINT mixamorig1:LeftHandMiddle4
											{
												OFFSET 2.806625 -0.600723 0.188473
												CHANNELS 3 Xrotation Yrotation Zrotation
												End Site
												{
													OFFSET 2.806618 -0.600739 0.188510
												}
											}
										}
									}
								}
								JOINT mixamorig1:LeftHandRing1
								{
									OFFSET 12.563576 -0.458878 -0.154891
									CHANNELS 3 Xrotation Yrotation Zrotation
									JOINT mixamorig1:LeftHandRing2
									{
										OFFSET 2.596565 -0.829819 0.032336
										CHANNELS 3 Xrotation Yrotation Zrotation
										JOINT mixamorig1:LeftHandRing3
										{
											OFFSET 2.548286 -0.608398 0.044838
											CHANNELS 3 Xrotation Yrotation Zrotation
											JOINT mixamorig1:LeftHandRing4
											{
												OFFSET 2.167870 -0.507812 0.038965
												CHANNELS 3 Xrotation Yrotation Zrotation
												End Site
												{
													OFFSET 2.167732 -0.508163 0.042114
												}
											}
										}
									}
								}
								JOINT mixamorig1:LeftHandPinky1
								{
									OFFSET 11.341652 -0.310532 -2.253323
									CHANNELS 3 Xrotation Yrotation Zrotation
									JOINT mixamorig1:LeftHandPinky2
									{
										OFFSET 2.648827 -0.669128 -0.120024
										CHANNELS 3 Xrotation Yrotation Zrotation
										JOINT mixamorig1:LeftHandPinky3
										{
											OFFSET 2.075249 -0.703857 -0.105192
											CHANNELS 3 Xrotation Yrotation Zrotation
											JOINT mixamorig1:LeftHandPinky4
											{
												OFFSET 1.850784 -0.684036 -0.097376
												CHANNELS 3 Xrotation Yrotation Zrotation
												End Site
												{
													OFFSET 1.850731 -0.683411 -0.102854
												}
											}
										}
									}
								}
							}
						}
					}
				}
				JOINT mixamorig1:RightShoulder
				{
					OFFSET -6.140133 12.877823 -1.741391
					CHANNELS 3 Xrotation Yrotation Zrotation
					JOINT mixamorig1:RightArm
					{
						OFFSET -12.545002 -3.431366 0.058123
						CHANNELS 3 Xrotation Yrotation Zrotation
						JOINT mixamorig1:RightForeArm
						{
							OFFSET -25.447330 -1.876465 -1.671036
							CHANNELS 3 Xrotation Yrotation Zrotation
							JOINT mixamorig1:RightHand
							{
								OFFSET -23.367435 0.877640 0.912149
								CHANNELS 3 Xrotation Yrotation Zrotation
								JOINT mixamorig1:RightHandThumb1
								{
									OFFSET -3.655281 -1.787811 3.110017
									CHANNELS 3 Xrotation Yrotation Zrotation
									JOINT mixamorig1:RightHandThumb2
									{
										OFFSET -2.924309 -1.430252 2.488113
										CHANNELS 3 Xrotation Yrotation Zrotation
										JOINT mixamorig1:RightHandThumb3
										{
											OFFSET -2.528549 -1.776962 1.706924
											CHANNELS 3 Xrotation Yrotation Zrotation
											JOINT mixamorig1:RightHandThumb4
											{
												OFFSET -2.443375 -1.162323 1.073468
												CHANNELS 3 Xrotation Yrotation Zrotation
												End Site
												{
													OFFSET -2.204521 -1.202744 1.472025
												}
											}
										}
									}
								}
								JOINT mixamorig1:RightHandIndex1
								{
									OFFSET -11.888382 -1.247833 4.755188
									CHANNELS 3 Xrotation Yrotation Zrotation
									JOINT mixamorig1:RightHandIndex2
									{
										OFFSET -3.042244 -0.516434 0.442817
										CHANNELS 3 Xrotation Yrotation Zrotation
										JOINT mixamorig1:RightHandIndex3
										{
											OFFSET -2.738869 -0.708374 0.392164
											CHANNELS 3 Xrotation Yrotation Zrotation
											JOINT mixamorig1:RightHandIndex4
											{
												OFFSET -2.432571 -0.620773 0.348507
												CHANNELS 3 Xrotation Yrotation Zrotation
												End Site
												{
													OFFSET -2.433441 -0.620270 0.343348
												}
											}
										}
									}
								}
								JOINT mixamorig1:RightHandMiddle1
								{
									OFFSET -12.008347 -0.748550 2.098396
									CHANNELS 3 Xrotation Yrotation Zrotation
									JOINT mixamorig1:RightHandMiddle2
									{
										OFFSET -3.442291 -0.415817 0.287318
										CHANNELS 3 Xrotation Yrotation Zrotation
										JOINT mixamorig1:RightHandMiddle3
										{
											OFFSET -3.106178 -0.837677 0.240102
											CHANNELS 3 Xrotation Yrotation Zrotation
											JOINT mixamorig1:RightHandMiddle4
											{
												OFFSET -2.855728 -0.604996 0.227592
												CHANNELS 3 Xrotation Yrotation Zrotation
												End Site
												{
													OFFSET -2.855972 -0.604736 0.225131
												}
											}
										}
									}
								}
								JOINT mixamorig1:RightHandRing1
								{
									OFFSET -12.328026 -0.608994 -0.015787
									CHANNELS 3 Xrotation Yrotation Zrotation
									JOINT mixamorig1:RightHandRing2
									{
										OFFSET -2.763496 -0.569153 -0.029507
										CHANNELS 3 Xrotation Yrotation Zrotation
										JOINT mixamorig1:RightHandRing3
										{
											OFFSET -2.573975 -0.772354 -0.042469
											CHANNELS 3 Xrotation Yrotation Zrotation
											JOINT mixamorig1:RightHandRing4
											{
												OFFSET -2.323860 -0.456833 -0.023427
												CHANNELS 3 Xrotation Yrotation Zrotation
												End Site
												{
													OFFSET -2.323814 -0.457275 -0.019363
												}
											}
										}
									}
								}
								JOINT mixamorig1:RightHandPinky1
								{
									OFFSET -11.463135 -0.329407 -2.202621
									CHANNELS 3 Xrotation Yrotation Zrotation
									JOINT mixamorig1:RightHandPinky2
									{
										OFFSET -2.569016 -0.599854 -0.108848
										CHANNELS 3 Xrotation Yrotation Zrotation
										JOINT mixamorig1:RightHandPinky3
										{
											OFFSET -2.016190 -0.737000 -0.102787
											CHANNELS 3 Xrotation Yrotation Zrotation
											JOINT mixamorig1:RightHandPinky4
											{
												OFFSET -1.796242 -0.576553 -0.085258
												CHANNELS 3 Xrotation Yrotation Zrotation
												End Site
												{
													OFFSET -1.796211 -0.576279 -0.087722
												}
											}
										}
									}
								}
							}
						}
					}
				}
			}
		}
	}
	JOINT mixamorig1:LeftUpLeg
	{
		OFFSET 8.078197 -5.402374 -0.535866
		CHANNELS 3 Xrotation Yrotation Zrotation
		JOINT mixamorig1:LeftLeg
		{
			OFFSET 3.743073 -42.540520 -2.695453
			CHANNELS 3 Xrotation Yrotation Zrotation
			JOINT mixamorig1:LeftFoot
			{
				OFFSET 3.359008 -41.940849 -2.882240
				CHANNELS 3 Xrotation Yrotation Zrotation
				JOINT mixamorig1:LeftToeBase
				{
					OFFSET 1.133368 -9.116436 13.321875
					CHANNELS 3 Xrotation Yrotation Zrotation
					JOINT mixamorig1:LeftToe_End
					{
						OFFSET 0.591574 -0.054443 6.177378
						CHANNELS 3 Xrotation Yrotation Zrotation
						End Site
						{
							OFFSET 0.591574 -0.054443 6.177376
						}
					}
				}
			}
		}
	}
	JOINT mixamorig1:RightUpLeg
	{
		OFFSET -8.078202 -5.402405 -0.751774
		CHANNELS 3 Xrotation Yrotation Zrotation
		JOINT mixamorig1:RightLeg
		{
			OFFSET -3.743069 -42.540482 -2.464511
			CHANNELS 3 Xrotation Yrotation Zrotation
			JOINT mixamorig1:RightFoot
			{
				OFFSET -3.359002 -41.940781 -2.968969
				CHANNELS 3 Xrotation Yrotation Zrotation
				JOINT mixamorig1:RightToeBase
				{
					OFFSET -1.133408 -9.116797 13.416489
					CHANNELS 3 Xrotation Yrotation Zrotation
					JOINT mixamorig1:RightToe_End
					{
						OFFSET -0.591589 -0.054615 6.151403
						CHANNELS 3 Xrotation Yrotation Zrotation
						End Site
						{
							OFFSET -0.591589 -0.054615 6.151402
						}
					}
				}
			}
		}
	}
}
MOTION
Frames: 5
Frame Time: 0.041667
0.203228 98.525238 0.678335 -0.282156 9.993986 -3.932706 2.608097 -0.699764 2.729645 1.656085 -2.278673 0.845950 -2.923701 -2.285055 0.251908 -3.367549 -1.151241 -0.983953 2.305957 -0.111907 1.863483 -0.000001 -0.000000 0.000000 8.280091 -20.929242 3.372283 -1.636157 3.649355 -72.768180 -2.531730 -30.454912 -7.016581 11.165147 -12.665753 7.952472 32.351468 10.625274 17.188402 -16.168702 13.234786 -6.409797 4.290201 -18.992519 -2.989489 -0.000001 0.000012 0.000009 -0.987372 3.969731 8.242546 2.809401 4.258896 -9.129536 0.308860 0.601925 -0.866121 0.000003 -0.000007 0.000012 1.358341 4.043095 -9.040246 3.825400 6.394113 -20.341056 2.915608 3.812808 -18.692447 -0.000001 0.000002 0.000001 1.573812 4.071968 -18.099523 2.651718 4.464366 -20.981738 1.473799 3.017677 -12.480757 0.000004 -0.000002 -0.000007 2.759586 5.960845 -17.288530 2.165802 6.705972 -23.877180 0.687533 2.379266 -4.874241 0.000011 -0.000003 0.000001 -0.854963 5.246495 5.162507 18.528066 -1.507657 69.668906 -2.181737 26.453075 6.846731 19.044639 -0.638409 -1.303055 17.558690 -9.290247 -10.412679 -3.501553 1.602911 -20.933973 -15.292903 13.918589 19.649662 0.000003 -0.000009 0.000010 -0.271951 1.135212 4.875113 5.279405 -5.449382 21.196763 3.212790 -2.140227 17.262856 -0.000004 -0.000002 -0.000006 2.985808 -5.364881 18.564910 5.720091 -7.458295 29.163863 6.022829 -5.386285 33.646468 0.000001 0.000005 0.000004 2.141958 -3.289995 31.316028 2.138168 -5.151941 18.244878 1.023123 -3.126395 25.610626 0.000003 -0.000004 -0.000001 2.479358 -4.045032 33.562546 4.744973 -9.708603 41.484281 2.780214 -8.195232 45.036160 -0.000001 0.000001 -0.000000 -25.434875 -0.911599 -2.197448 65.205391 6.402948 4.185629 3.191236 0.463064 3.188981 -1.567181 0.000008 -0.000001 -0.000006 0.000001 0.000004 -9.023535 -12.818165 13.579680 14.683145 0.458659 -1.693288 -5.010829 -4.587192 -9.675287 -2.773158 -0.000003 0.000002 0.000001 0.000002 -0.000002 
0.457034 98.800827 0.349744 0.512387 8.449047 -2.953761 2.217616 -0.256214 2.181156 1.320645 -1.249887 0.284490 -3.217851 -1.239440 -0.283700 -2.924292 -1.309465 -0.732112 2.499064 -0.211368 1.968945 -0.000002 0.000000 -0.000000 8.097275 -21.022450 2.666956 1.029991 7.218534 -74.560824 -2.188470 -26.856406 -6.854025 16.616353 -6.182899 -0.155827 30.586410 11.363749 20.533299 -11.126661 6.664985 -7.819226 2.864452 -27.782146 -4.008984 -0.000007 0.000002 -0.000002 0.775990 4.991233 5.178715 2.865406 4.297307 -9.328997 0.359962 0.647631 -1.061625 0.000015 -0.000004 0.000001 1.928642 5.346719 -10.473961 3.821131 6.390292 -20.319943 2.912444 3.809640 -18.676082 0.000001 -0.000002 -0.000004 1.979304 4.636092 -19.877649 2.622523 4.429697 -20.814802 1.450158 2.978928 -12.313950 -0.000002 -0.000006 -0.000001 3.344504 6.817143 -17.969058 2.163320 6.701782 -23.858652 0.686248 2.374669 -4.855916 0.000004 -0.000009 0.000003 -0.860239 5.573571 5.247117 12.767590 -1.244116 68.596252 -2.262861 27.330452 6.883171 19.851024 -2.465047 -2.308246 17.155159 -9.099001 -10.627381 -3.844573 1.251370 -20.736707 -15.386444 14.166396 19.674544 0.000003 -0.000014 -0.000001 -0.328339 1.449524 5.122678 5.283288 -5.451309 21.211658 3.216254 -2.142608 17.277570 0.000006 -0.000001 0.000003 2.773617 -4.781943 19.198279 5.723098 -7.459996 29.177479 6.025026 -5.387391 33.656157 0.000005 -0.000002 0.000003 2.150394 -3.303611 31.538682 2.145196 -5.162484 18.298374 1.029432 -3.137743 25.664251 -0.000000 0.000001 0.000006 2.443605 -4.003928 33.955637 4.751407 -9.714279 41.520416 2.786282 -8.201970 45.071961 0.000003 -0.000002 -0.000009 -30.523511 -1.147425 -5.116819 58.142839 8.009678 4.487286 0.203305 0.641741 1.246703 -0.788936 0.000002 0.000005 -0.000001 0.000004 0.000003 -6.519209 -12.989837 12.872856 14.335008 0.280148 -2.076131 -6.538548 -2.118642 -9.268270 -2.707253 -0.000006 0.000004 -0.000000 0.000004 -0.000001 
0.778321 98.522331 0.053484 1.396414 6.089719 -1.907359 1.742053 0.241872 1.601661 1.189304 -0.070743 -0.010986 -3.312100 -0.061151 -0.540020 -3.121387 -1.251187 -1.091545 2.340248 -0.227634 1.756978 0.000001 -0.000001 0.000000 7.521450 -19.869782 0.474808 4.289028 11.548060 -74.555579 -2.128227 -26.199579 -6.827564 27.062261 -0.565627 -10.446915 28.758194 12.095571 24.132197 -2.660525 8.400745 -6.593514 1.873302 -31.808546 -5.535345 0.000007 -0.000003 -0.000006 2.418499 5.498662 3.577104 2.899604 4.320597 -9.450480 0.391139 0.675345 -1.180608 0.000014 -0.000008 -0.000002 2.268474 6.163308 -10.917660 3.816745 6.386381 -20.298503 2.909413 3.806627 -18.660432 -0.000005 0.000003 0.000002 2.170144 4.893226 -20.429369 2.611308 4.416312 -20.750472 1.441104 2.963972 -12.249702 -0.000004 -0.000000 0.000002 3.421410 6.944529 -17.925499 2.167429 6.708752 -23.889522 0.688421 2.382331 -4.886419 0.000001 -0.000009 0.000008 -0.784077 6.381138 3.635587 7.118026 -0.389199 68.697947 -2.306578 27.797410 6.903300 19.342963 -3.748062 -2.599342 17.421934 -8.422784 -10.300503 -4.519251 1.032396 -20.698871 -15.470129 14.388125 19.697526 0.000006 -0.000007 -0.000003 -0.377723 1.730947 5.467479 5.263911 -5.441664 21.137193 3.198976 -2.130723 17.204125 -0.000000 0.000003 -0.000002 2.533048 -4.164411 19.873906 5.725690 -7.461443 29.189090 6.026558 -5.388154 33.662966 -0.000002 0.000005 0.000002 2.177936 -3.342164 31.895699 2.155097 -5.177286 18.373431 1.038311 -3.153692 25.739443 -0.000006 0.000006 -0.000008 2.379431 -3.933846 34.507502 4.739832 -9.704052 41.455355 2.775327 -8.189800 45.007450 -0.000003 -0.000004 0.000006 -33.808671 -0.967310 -6.791544 48.139228 8.491020 4.465762 -0.820906 0.706948 1.105210 -0.131236 0.000001 0.000001 -0.000005 0.000001 0.000002 -4.739181 -13.130428 11.521592 15.504975 1.162990 -2.197214 -9.647462 0.858055 -8.657664 -2.411218 -0.000009 0.000004 -0.000000 0.000003 0.000000 
1.144963 97.927269 -0.098171 2.163162 3.331553 -0.657943 1.377332 0.637794 1.191481 1.083224 0.807521 -0.532532 -3.396408 0.838322 -1.023561 -3.502605 -1.039023 -1.491724 2.115656 -0.115018 1.568809 -0.000001 -0.000000 0.000000 6.979861 -16.953703 -1.895641 7.583241 15.625308 -73.943300 -2.127490 -26.191501 -6.827231 39.435361 3.133517 -19.471152 27.168483 12.571106 27.449173 -2.557476 12.219979 -5.331279 1.850765 -33.590662 -5.233712 -0.000015 -0.000001 -0.000007 3.276801 4.343776 6.061480 2.991281 4.382523 -9.775500 0.474871 0.749284 -1.499393 0.000000 -0.000005 -0.000003 1.638982 5.296325 -7.916242 3.796562 6.368274 -20.198965 2.890093 3.787425 -18.560742 0.000001 -0.000005 0.000004 1.763703 4.383224 -17.610299 2.620454 4.427222 -20.802987 1.448508 2.976176 -12.302201 0.000009 0.000006 0.000001 2.513151 5.745432 -15.515190 2.195215 6.755778 -24.097519 0.703139 2.434022 -5.092016 0.000003 0.000009 0.000009 -0.665251 7.917490 2.011333 2.228657 1.449132 69.059462 -2.318768 27.926956 6.908954 17.616675 -4.119550 -2.251509 17.867126 -7.394242 -9.791504 -5.208266 0.766540 -20.717784 -15.538872 14.570300 19.716905 0.000006 -0.000024 0.000009 -0.382473 1.816521 6.074129 5.211992 -5.415728 20.937795 3.152825 -2.098803 17.007444 -0.000001 -0.000002 -0.000003 2.295555 -3.576658 20.639426 5.727249 -7.462326 29.196166 6.027224 -5.388491 33.665890 -0.000005 0.000010 0.000004 2.179878 -3.355879 32.489745 2.159382 -5.183667 18.405826 1.042170 -3.160637 25.772303 0.000006 0.000006 -0.000002 2.254087 -3.807550 35.109334 4.725315 -9.691134 41.373478 2.761597 -8.174549 44.926420 -0.000003 -0.000012 0.000003 -35.764028 0.052381 -7.544681 36.316423 7.910718 4.246974 -0.864471 0.518869 2.206536 -0.230120 0.000007 0.000002 -0.000000 0.000001 0.000002 -2.725445 -13.569688 9.715663 16.783423 4.354998 -2.317747 -13.347723 1.484511 -8.200313 -2.392510 -0.000001 0.000005 -0.000000 0.000003 0.000000 
1.485525 97.185547 0.005697 2.544653 0.667822 0.255013 1.095825 1.036276 1.201286 1.317309 1.554029 -0.953883 -3.139769 1.612093 -1.404391 -4.127185 -0.688561 -2.262230 1.816795 0.046238 1.202176 0.000003 0.000000 -0.000000 6.658660 -13.989909 -3.763686 10.187874 17.371963 -73.299022 -1.977994 -24.529282 -6.764171 47.398016 2.153193 -24.232253 26.099244 12.602611 29.902415 -9.911396 17.119131 -3.895621 2.677626 -32.491292 -3.499278 -0.000010 0.000006 0.000003 4.133762 2.736364 9.490531 3.064866 4.431707 -10.035699 0.542379 0.808270 -1.755144 0.000012 -0.000004 -0.000001 0.760847 3.512155 -3.942372 3.783442 6.356478 -20.134359 2.876712 3.774056 -18.491451 0.000001 -0.000002 -0.000002 1.209926 3.598361 -13.787072 2.644629 4.455980 -20.941263 1.467993 3.008182 -12.439881 0.000002 -0.000004 -0.000002 1.528049 4.216746 -12.691834 2.230800 6.815413 -24.362030 0.722122 2.499644 -5.353361 0.000006 -0.000004 0.000004 -0.409980 9.988305 -0.458971 -1.749369 3.466300 70.327220 -2.341194 28.164521 6.919452 15.329236 -3.254034 -1.598026 18.284275 -5.623658 -9.162132 -6.014978 0.220281 -20.710786 -15.607414 14.751557 19.737119 -0.000006 -0.000012 0.000005 -0.336660 1.660530 7.337481 5.182969 -5.401128 20.826138 3.126987 -2.080853 16.897284 0.000013 -0.000001 0.000007 2.113183 -3.081095 22.032039 5.725710 -7.461471 29.189203 6.024645 -5.387181 33.654446 -0.000002 -0.000001 0.000002 2.118548 -3.317403 33.692244 2.150808 -5.170857 18.340832 1.034477 -3.146841 25.707078 0.000004 -0.000001 -0.000004 1.986576 -3.612625 36.131871 4.690358 -9.659959 41.176028 2.728422 -8.137479 44.730291 -0.000001 -0.000001 0.000001 -37.029119 1.433491 -7.299572 25.363008 6.577216 3.711090 -1.272026 0.154357 3.124513 -1.825963 -0.000000 -0.000003 0.000002 0.000002 0.000003 0.513409 -14.551665 8.056560 16.670752 7.801930 -2.255876 -15.984972 1.748687 -8.054102 -2.994551 -0.000006 0.000004 -0.000000 0.000003 0.000001 
